<svg xmlns="http://www.w3.org/2000/svg" xmlns:xlink="http://www.w3.org/1999/xlink" width="80" height="80" viewBox="0 0 80 80">
  <defs>
    <clipPath id="clip-path">
      <rect id="Rectangle_61" data-name="Rectangle 61" width="40" height="40" transform="translate(0)" fill="#e3e3e3"/>
    </clipPath>
  </defs>
  <g id="_1" data-name="1" transform="translate(-666 -2752)">
    <g id="Ellipse_16" data-name="Ellipse 16" transform="translate(666 2752)" fill="none" stroke="#193971" stroke-width="2">
      <circle cx="40" cy="40" r="40" stroke="none"/>
      <circle cx="40" cy="40" r="39" fill="none"/>
    </g>
    <g id="Mask_Group_8" data-name="Mask Group 8" transform="translate(686 2772)" clip-path="url(#clip-path)">
      <g id="Group_275" data-name="Group 275" transform="translate(0 2.4)">
        <path id="Path_59" data-name="Path 59" d="M17.321,5.047a4.162,4.162,0,0,0,1.836.641A4.984,4.984,0,0,0,22.77,4.139,5.351,5.351,0,0,0,24.264.4,5.351,5.351,0,0,0,22.77-3.346a4.984,4.984,0,0,0-3.613-1.548,3.563,3.563,0,0,0-1.782.7,3.926,3.926,0,0,1-1,.5c-.272-.528-.139-2.7.292-4.645a1.089,1.089,0,0,0,.03-.251A2.373,2.373,0,0,0,14.362-11H10.091a1.089,1.089,0,0,0-.945.564l-.683,1.23-.683-1.23A1.083,1.083,0,0,0,6.834-11h-4.5A2.377,2.377,0,0,0,0-8.59v6.326A1.131,1.131,0,0,0,.7-1.208a2.058,2.058,0,0,0,.747.138,4.253,4.253,0,0,0,2.143-.815,7.288,7.288,0,0,1,.678-.385A2.991,2.991,0,0,1,7.206.766,2.988,2.988,0,0,1,4.3,3.806a4.469,4.469,0,0,1-.871-.4,4.807,4.807,0,0,0-2.118-.723,2,2,0,0,0-.465.056A1.117,1.117,0,0,0,0,3.837V8.758a2.373,2.373,0,0,0,2.331,2.41H14.362a2.377,2.377,0,0,0,2.331-2.41,1.155,1.155,0,0,0-.02-.226,14.224,14.224,0,0,1-.3-3.927A7.042,7.042,0,0,1,17.321,5.047ZM16.188,2.309a1.826,1.826,0,0,0-1.356.569c-1,1.036-.742,3.758-.332,5.932a.163.163,0,0,1-.139.1H2.331a.159.159,0,0,1-.153-.154V5.282c.094.046.183.1.262.138a4.162,4.162,0,0,0,1.836.641A5.216,5.216,0,0,0,9.388.766,5.209,5.209,0,0,0,4.276-4.525a3.58,3.58,0,0,0-1.782.7c-.094.056-.2.123-.317.19V-8.585a.156.156,0,0,1,.153-.154H6.206L7.517-6.381a1.083,1.083,0,0,0,.945.564,1.089,1.089,0,0,0,.945-.564l1.311-2.358h3.642a.161.161,0,0,1,.139.092c-.99,4.588-.1,6.121.332,6.567a2.05,2.05,0,0,0,1.5.651,4.246,4.246,0,0,0,2.148-.82,6.24,6.24,0,0,1,.678-.384,2.867,2.867,0,0,1,2.074.892A3.051,3.051,0,0,1,22.087.407a3.1,3.1,0,0,1-.856,2.148,2.856,2.856,0,0,1-2.054.892,4.6,4.6,0,0,1-.871-.4A4.643,4.643,0,0,0,16.188,2.309Z" transform="translate(0 24.227)" fill="#193971" fill-rule="evenodd"/>
        <path id="Path_60" data-name="Path 60" d="M27.693-3.341a4.822,4.822,0,0,0-3.533-1.548,3.439,3.439,0,0,0-1.742.7,3.915,3.915,0,0,1-.982.5c-.266-.523-.135-2.7.286-4.645a1.123,1.123,0,0,0,.029-.256A2.349,2.349,0,0,0,19.472-11H15.136a1.061,1.061,0,0,0-.924.564l-.668,1.23-.668-1.23A1.055,1.055,0,0,0,11.952-11H9v2.256h2.337L12.62-6.386a1.055,1.055,0,0,0,.924.564,1.061,1.061,0,0,0,.924-.564l1.282-2.358h3.721a.157.157,0,0,1,.135.092c-.968,4.588-.1,6.121.324,6.567,1.224,1.3,2.749.343,3.566-.169a6.067,6.067,0,0,1,.663-.385,2.774,2.774,0,0,1,2.028.892A3.089,3.089,0,0,1,27.026.4a3.133,3.133,0,0,1-.837,2.148,2.764,2.764,0,0,1-2.008.892,4.324,4.324,0,0,1-.852-.4c-.939-.5-2.352-1.266-3.4-.159-.978,1.036-.726,3.763-.324,5.932a.159.159,0,0,1-.135.1H9v2.256H19.472a2.349,2.349,0,0,0,2.279-2.41,1.185,1.185,0,0,0-.019-.226,14.551,14.551,0,0,1-.29-3.927,7.1,7.1,0,0,1,.929.446,4.01,4.01,0,0,0,1.8.641A4.822,4.822,0,0,0,27.7,4.149,5.417,5.417,0,0,0,29.16.407,5.433,5.433,0,0,0,27.693-3.341Z" transform="translate(10.84 24.227)" fill="#193971" fill-rule="evenodd"/>
        <path id="Path_61" data-name="Path 61" d="M6.638-5.724a5.645,5.645,0,0,0,5.638-5.638A5.645,5.645,0,0,0,6.638-17,5.645,5.645,0,0,0,1-11.362,5.645,5.645,0,0,0,6.638-5.724Zm0-8.845a3.216,3.216,0,0,1,3.213,3.213A3.213,3.213,0,0,1,6.638-8.143a3.216,3.216,0,0,1-3.213-3.213A3.213,3.213,0,0,1,6.638-14.57Z" transform="translate(1.204 17)" fill="#193971" fill-rule="evenodd"/>
        <path id="Path_62" data-name="Path 62" d="M13.638-5.724a5.645,5.645,0,0,0,5.638-5.638A5.645,5.645,0,0,0,13.638-17,5.645,5.645,0,0,0,8-11.362,5.645,5.645,0,0,0,13.638-5.724Zm0-8.845a3.216,3.216,0,0,1,3.213,3.213,3.213,3.213,0,0,1-3.213,3.213,3.216,3.216,0,0,1-3.213-3.213A3.216,3.216,0,0,1,13.638-14.57Z" transform="translate(9.636 17)" fill="#193971" fill-rule="evenodd"/>
      </g>
    </g>
  </g>
</svg>
