<svg xmlns="http://www.w3.org/2000/svg" xmlns:xlink="http://www.w3.org/1999/xlink" width="80" height="80" viewBox="0 0 80 80">
  <defs>
    <clipPath id="clip-path">
      <rect id="Rectangle_58" data-name="Rectangle 58" width="40" height="40" fill="#193971"/>
    </clipPath>
  </defs>
  <g id="_2" data-name="2" transform="translate(-233 -2752)">
    <g id="Path_63" data-name="Path 63" transform="translate(233 2752)" fill="none">
      <path d="M40,0A40,40,0,1,1,0,40,40,40,0,0,1,40,0Z" stroke="none"/>
      <path d="M 40 2 C 34.8691520690918 2 29.89284515380859 3.004432678222656 25.20929336547852 4.98541259765625 C 20.68452835083008 6.899223327636719 16.62044525146484 9.639450073242188 13.12994384765625 13.12994384765625 C 9.639450073242188 16.62044525146484 6.899223327636719 20.68452835083008 4.98541259765625 25.20929336547852 C 3.004432678222656 29.89284515380859 2 34.8691520690918 2 40 C 2 45.1308479309082 3.004432678222656 50.10715484619141 4.98541259765625 54.79070663452148 C 6.899223327636719 59.31546783447266 9.639450073242188 63.37955474853516 13.12994384765625 66.87005615234375 C 16.62044525146484 70.36054992675781 20.68452835083008 73.10077667236328 25.20929336547852 75.01458740234375 C 29.89284515380859 76.99556732177734 34.8691520690918 78 40 78 C 45.1308479309082 78 50.10715484619141 76.99556732177734 54.79070663452148 75.01458740234375 C 59.31546783447266 73.10077667236328 63.37955474853516 70.36054992675781 66.87005615234375 66.87005615234375 C 70.36054992675781 63.37955474853516 73.10077667236328 59.31546783447266 75.01458740234375 54.79070663452148 C 76.99556732177734 50.10715484619141 78 45.1308479309082 78 40 C 78 34.8691520690918 76.99556732177734 29.89284515380859 75.01458740234375 25.20929336547852 C 73.10077667236328 20.68452835083008 70.36054992675781 16.62044525146484 66.87005615234375 13.12994384765625 C 63.37955474853516 9.639450073242188 59.31546783447266 6.899223327636719 54.79070663452148 4.98541259765625 C 50.10715484619141 3.004432678222656 45.1308479309082 2 40 2 M 40 0 C 62.09138870239258 0 80 17.90861129760742 80 40 C 80 62.09138870239258 62.09138870239258 80 40 80 C 17.90861129760742 80 0 62.09138870239258 0 40 C 0 17.90861129760742 17.90861129760742 0 40 0 Z" stroke="none" fill="#193971"/>
    </g>
    <g id="Mask_Group_5" data-name="Mask Group 5" transform="translate(253 2771.2)" clip-path="url(#clip-path)">
      <g id="Group_272" data-name="Group 272" transform="translate(0 4)">
        <path id="Path_49" data-name="Path 49" d="M11.345-1.154a7.145,7.145,0,0,0,.279-5.3,4.067,4.067,0,0,0-3.961-2.54A4.034,4.034,0,0,0,3.723-6.465a7.113,7.113,0,0,0,.329,5.329A6.19,6.19,0,0,0,.007,4.377,2,2,0,0,0,1.789,6.563c.054,0,.108.007.163.007h11.6A1.989,1.989,0,0,0,15.5,4.543q0-.1-.009-.195A6.263,6.263,0,0,0,11.345-1.154Zm-9.393,5.7A4.378,4.378,0,0,1,5.823.443h0C7,0,6.6-.789,6.42-1.084l-.1-.1C5.266-2.34,4.2-6.968,7.668-6.968S10.13-2.34,9.094-1.183l-.1.1C8.815-.789,8.436,0,9.6.443a4.449,4.449,0,0,1,3.956,4.1Z" transform="translate(0 25.923)" fill="#193971" fill-rule="evenodd"/>
        <path id="Path_50" data-name="Path 50" d="M24.846-1.137a6.418,6.418,0,0,0,.376-5.329,5.171,5.171,0,0,0-6.67-2.047,4.8,4.8,0,0,0-2.218,2.047,6.418,6.418,0,0,0,.307,5.3A6.415,6.415,0,0,0,12.01,4.348,1.944,1.944,0,0,0,12.568,5.9a2.274,2.274,0,0,0,1.63.665H27.241a2.115,2.115,0,0,0,2.2-2.024c0-.056,0-.113-.008-.169A6.309,6.309,0,0,0,24.846-1.137ZM14.191,4.544c.307-2.893,2.727-3.8,4.444-4.1,1.329-.44.884-1.232.683-1.527l-.113-.1c-1.166-1.157-2.294-5.786,1.611-5.786s2.7,4.629,1.511,5.786l-.113.1c-.207.3-.627,1.088.671,1.527h0c1.711.312,4.1,1.209,4.388,4.1Z" transform="translate(10.564 25.923)" fill="#193971" fill-rule="evenodd"/>
        <path id="Path_51" data-name="Path 51" d="M7.953-2.337h4.686V1.591L8.833,4.647a1.2,1.2,0,0,0-.2,1.633,1.083,1.083,0,0,0,1.563.212l3.56-2.869,3.56,2.869a1.084,1.084,0,0,0,.68.239A1.14,1.14,0,0,0,19.1,5.563a1.183,1.183,0,0,0-.431-.916L14.867,1.586V-2.337h4.68A2,2,0,0,0,21.5-4.373q0-.085-.007-.17a6.212,6.212,0,0,0-4.045-5.547,7.222,7.222,0,0,0,.334-5.36,4.038,4.038,0,0,0-3.939-2.543,4.06,4.06,0,0,0-3.961,2.555,7.2,7.2,0,0,0,.279,5.331A6.3,6.3,0,0,0,6.009-4.572a2.1,2.1,0,0,0,.5,1.566A1.892,1.892,0,0,0,7.953-2.337ZM11.9-8.507c1.181-.436.786-1.234.607-1.531l-.1-.1c-1.036-1.164-2.034-5.82,1.432-5.82s2.4,4.656,1.348,5.82a.827.827,0,0,0-.1.1c-.184.3-.591,1.094.6,1.536h0a4.428,4.428,0,0,1,3.9,4.126H7.953A4.474,4.474,0,0,1,11.9-8.53Z" transform="translate(5.282 18)" fill="#193971" fill-rule="evenodd"/>
      </g>
    </g>
  </g>
</svg>
