<svg xmlns="http://www.w3.org/2000/svg" xmlns:xlink="http://www.w3.org/1999/xlink" width="80" height="80" viewBox="0 0 80 80">
  <defs>
    <clipPath id="clip-path">
      <rect id="Rectangle_59" data-name="Rectangle 59" width="40" height="40" fill="#fff"/>
    </clipPath>
  </defs>
  <g id="_3_white" data-name="3_white" transform="translate(7258 -8048)">
    <g id="Ellipse_14" data-name="Ellipse 14" transform="translate(-7258 8048)" fill="none" stroke="#fff" stroke-width="2">
      <circle cx="40" cy="40" r="40" stroke="none"/>
      <circle cx="40" cy="40" r="39" fill="none"/>
    </g>
    <g id="Mask_Group_6" data-name="Mask Group 6" transform="translate(-7238 8068)" clip-path="url(#clip-path)">
      <g id="Group_273" data-name="Group 273" transform="translate(0 1.6)">
        <path id="Path_52" data-name="Path 52" d="M7.022-10.993a4.018,4.018,0,0,0,3.986-4,4.018,4.018,0,0,0-3.986-4A4.026,4.026,0,0,0,3-15,4.026,4.026,0,0,0,7.022-10.993Zm0-6.306A2.241,2.241,0,0,1,9.16-15a2.241,2.241,0,0,1-2.138,2.3A2.246,2.246,0,0,1,4.848-15,2.246,2.246,0,0,1,7.022-17.3Z" transform="translate(2.969 19)" fill="#fff" fill-rule="evenodd"/>
        <path id="Path_53" data-name="Path 53" d="M39.231-17.573H29.245v-.6A.837.837,0,0,0,28.426-19a.81.81,0,0,0-.788.825v.6H17.653a.837.837,0,0,0-.819.825v5.488H15.417l-2.489-.032a.7.7,0,0,0-.693.381l-.819,1.364v-1.205H9.81V-9.42L8.9-10.911a.789.789,0,0,0-.693-.381c-.031,0-.063-.032-.126-.032A4.571,4.571,0,0,0,6-11.006C4.14-10.308,1.62-7.675.045,1.017A2.754,2.754,0,0,0,.108,2.064V2.1A2.346,2.346,0,0,0,2.722,3.777c.063-.032.126-.032.189-.063A2.35,2.35,0,0,0,4.549,1.968V1.937A33.237,33.237,0,0,1,5.872-3.3V16.339A2.458,2.458,0,0,0,8.3,18.876a3.86,3.86,0,0,0,1.985-.634c.126-.1.221-.19.347-.285a3.482,3.482,0,0,0,2.3.92,2.458,2.458,0,0,0,2.426-2.538V-5.994h1.481V8.281a.81.81,0,0,0,.819.793h6.111l-1.733,8.977a.8.8,0,0,0,.63.952c.063,0,.095.032.158.032a.81.81,0,0,0,.788-.666l1.8-9.295h2.237v8.977a.81.81,0,0,0,.788.825.837.837,0,0,0,.819-.825V9.074H31.45l1.8,9.295a.837.837,0,0,0,.788.666A1.356,1.356,0,0,0,34.191,19a.8.8,0,0,0,.63-.952L33.088,9.074h6.143a.783.783,0,0,0,.788-.793V-16.748A.81.81,0,0,0,39.231-17.573ZM15.417-7.612h-.095l-.851.1a.848.848,0,0,0-.725.825v23.03a.858.858,0,0,1-.819.92c-.693,0-1.481-.539-1.481-.92h-.031V1.968H9.81v14.37H9.778c0,.381-.756.92-1.481.92a.858.858,0,0,1-.819-.92V-6.692a.864.864,0,0,0-.536-.793A.853.853,0,0,0,6.03-7.2C5.179-6.121,3.951-3.71,2.974,1.62a.873.873,0,0,1-.473.539c-.6.032-.788-.286-.851-.476a2.151,2.151,0,0,1-.032-.317.031.031,0,0,1,.032-.032C2.061-.95,3.636-8.436,6.565-9.483c.032,0,.063-.032.095-.032a2.642,2.642,0,0,1,1.071-.19L9.747-6.47a.789.789,0,0,0,.693.381h.347a.754.754,0,0,0,.693-.381l1.89-3.2,2.016.032h9.167A1,1,0,0,1,25.56-8.627a1,1,0,0,1-1.008,1.015Zm23,15.068H18.441V-5.994h6.111a2.617,2.617,0,0,0,2.615-2.633,2.617,2.617,0,0,0-2.615-2.633H18.441v-4.695H38.412Z" transform="translate(-0.018 19)" fill="#fff" fill-rule="evenodd"/>
        <path id="Path_54" data-name="Path 54" d="M10-9h2v4H10Z" transform="translate(9.982 29.018)" fill="#fff"/>
        <path id="Path_55" data-name="Path 55" d="M13-12h2V-1.991H13Z" transform="translate(12.987 26.013)" fill="#fff"/>
        <path id="Path_56" data-name="Path 56" d="M15-10h2v6.006H15Z" transform="translate(14.991 28.017)" fill="#fff"/>
        <path id="Path_57" data-name="Path 57" d="M17-14h2V.013H17Z" transform="translate(16.994 24.009)" fill="#fff"/>
      </g>
    </g>
  </g>
</svg>
