<svg xmlns="http://www.w3.org/2000/svg" xmlns:xlink="http://www.w3.org/1999/xlink" width="80" height="80" viewBox="0 0 80 80">
  <defs>
    <clipPath id="clip-path">
      <rect id="Rectangle_60" data-name="Rectangle 60" width="40" height="40" fill="#e3e3e3"/>
    </clipPath>
  </defs>
  <g id="_4" data-name="4" transform="translate(-515 -2755)">
    <g id="Ellipse_15" data-name="Ellipse 15" transform="translate(515 2755)" fill="none" stroke="#193971" stroke-width="2">
      <circle cx="40" cy="40" r="40" stroke="none"/>
      <circle cx="40" cy="40" r="39" fill="none"/>
    </g>
    <g id="Mask_Group_7" data-name="Mask Group 7" transform="translate(535 2775)" clip-path="url(#clip-path)">
      <g id="Group_274" data-name="Group 274" transform="translate(0 6.4)">
        <path id="Path_58" data-name="Path 58" d="M39.1-5.13a3.711,3.711,0,0,0,.153-4.648L36.17-13.731A3.351,3.351,0,0,0,33.538-15a3.2,3.2,0,0,0-1.794.537L29.262-12.8a2.669,2.669,0,0,1-2.5,0l-1.676-1.121a4.582,4.582,0,0,0-2.534-.711,4.413,4.413,0,0,0-2.131.505l-.475.263-1.768-.605a6.1,6.1,0,0,0-4.665.553l-.649.411a3.3,3.3,0,0,1-2.79.137l-1.84-.921a3.712,3.712,0,0,0-4.451,1.026L.693-9.315a3.369,3.369,0,0,0,.414,4.543L4.07-2.166l-.731.753a3.278,3.278,0,0,0,0,4.538l.066.068A3.017,3.017,0,0,0,4.791,4a3.418,3.418,0,0,0-.143.911,3.234,3.234,0,0,0,.91,2.269l.066.068a3.046,3.046,0,0,0,2.2.937c.087,0,.169-.021.256-.026A3.208,3.208,0,0,0,8.94,9.894l.066.068a2.99,2.99,0,0,0,3.178.763,3.162,3.162,0,0,0,.741,1.258l.066.068a3.057,3.057,0,0,0,4.4,0l.439-.453.526.542A3.147,3.147,0,0,0,20.6,13.1H20.6a2.881,2.881,0,0,0,2.08-.879,3.119,3.119,0,0,0,.608-.937A3.124,3.124,0,0,0,25.24,12a2.884,2.884,0,0,0,2.044-.837,2.962,2.962,0,0,0,.823-1.611,3.04,3.04,0,0,0,2.652-.842,3.124,3.124,0,0,0,.966-2.09h.015a2.848,2.848,0,0,0,2.023-.827,2.952,2.952,0,0,0,.858-2.09,3.29,3.29,0,0,0-.95-2.311l-.4-.411A2.988,2.988,0,0,0,34.249.25ZM4.735.024,6.973-2.282a1.127,1.127,0,0,1,.812-.342,1.127,1.127,0,0,1,.812.342l.072.074a1.206,1.206,0,0,1,0,1.669L6.431,1.766a1.161,1.161,0,0,1-1.625,0L4.74,1.7A1.212,1.212,0,0,1,4.735.024ZM7.024,5.83l-.066-.068a1.221,1.221,0,0,1,0-1.674l.864-.89h0L10.059.892h0L10.146.8a1.136,1.136,0,0,1,1.625,0l.072.074a1.207,1.207,0,0,1,0,1.674L8.654,5.835A1.162,1.162,0,0,1,7.024,5.83Zm3.383,2.711-.066-.068a1.2,1.2,0,0,1-.261-1.248l2.969-3.058a1.149,1.149,0,0,1,.4-.079,1.127,1.127,0,0,1,.812.342l.072.074a1.207,1.207,0,0,1,0,1.674l-2.3,2.369A1.162,1.162,0,0,1,10.406,8.541Zm3.991,2.1-.066-.068A1.2,1.2,0,0,1,14,9.731a1.131,1.131,0,0,1,.077-.416l1.656-1.706a3.077,3.077,0,0,0,.261-.332,1.121,1.121,0,0,1,1.323.216l.072.074a1.221,1.221,0,0,1,0,1.674l-1.359,1.4A1.172,1.172,0,0,1,14.4,10.636Zm18.012-6.28a1.107,1.107,0,0,1-1.543-.132l-4.9-5.069L24.571.587l4.9,5.069a1.109,1.109,0,0,1-.061,1.611A1.232,1.232,0,0,1,27.7,7.23L23.886,3.287l-.429-.442h0l-.695.716-.695.716,3.786,3.911a1.218,1.218,0,0,1,.353.863.931.931,0,0,1-.271.674,1.107,1.107,0,0,1-1.553-.116l-3.1-3.222-.036-.037h0l-.685.7-.715.726,1.436,1.5a1.141,1.141,0,0,1,.02,1.548.93.93,0,0,1-.685.284h0a1.207,1.207,0,0,1-.843-.368l-.582-.6a3.269,3.269,0,0,0,.491-1.727,3.235,3.235,0,0,0-.91-2.269L18.7,6.072a3.056,3.056,0,0,0-2.085-.926,3.243,3.243,0,0,0-.889-2.064l-.072-.074A3.048,3.048,0,0,0,14.1,2.145a3.251,3.251,0,0,0-.869-2.69l-.072-.074a3.046,3.046,0,0,0-2.2-.937h-.005a3.21,3.21,0,0,0-.894-2.079l-.072-.074a3.046,3.046,0,0,0-2.2-.937,3.046,3.046,0,0,0-2.2.937l-.112.116L2.384-6.3a1.3,1.3,0,0,1-.158-1.732l3.086-3.953a1.773,1.773,0,0,1,2.054-.474l1.84.921a5.237,5.237,0,0,0,4.681-.232l.649-.405a4.183,4.183,0,0,1,3.02-.358l-.3.163a3.509,3.509,0,0,0-1.467,4.348l.041.095a3.186,3.186,0,0,0,2.933,1.969,3.024,3.024,0,0,0,1.16-.232l1.073-.442a8.838,8.838,0,0,1,1.477-.474c.342.347.935.942,1.538,1.553l3.6,3.643L32.3,2.856a1.225,1.225,0,0,1,.363.858A.894.894,0,0,1,32.409,4.356ZM28.822-3.535h0L25.383-7.009c-.838-.842-1.645-1.663-1.8-1.827a1.2,1.2,0,0,0-.894-.337,8.189,8.189,0,0,0-2.422.647l-1.073.442a1.239,1.239,0,0,1-1.558-.663l-.041-.095a1.438,1.438,0,0,1,.593-1.758l3.163-1.748a3.087,3.087,0,0,1,2.662.116l1.676,1.121a4.2,4.2,0,0,0,2.325.658,4.223,4.223,0,0,0,2.32-.653l2.483-1.658a1.447,1.447,0,0,1,1.824.3l3.086,3.953a1.66,1.66,0,0,1-.066,2l-4.844,5.4a1.066,1.066,0,0,1-.8.363h0a1.08,1.08,0,0,1-.761-.321L28.9-3.451Z" transform="translate(0 15)" fill="#193971" fill-rule="evenodd"/>
      </g>
    </g>
  </g>
</svg>
