<svg xmlns="http://www.w3.org/2000/svg" viewBox="0 0 188.99 17.1"><defs><style>.cls-1{fill:#fff;}</style></defs><g id="Layer_2" data-name="Layer 2"><g id="Layer_1-2" data-name="Layer 1"><path class="cls-1" d="M10.24,14.16a3.16,3.16,0,0,1-2.41.65H3.73a3.17,3.17,0,0,1-2.41-.65C.55,13.43,0,12.2,0,8.11s.55-5.34,1.32-6a3.13,3.13,0,0,1,2.41-.65h4.1a3.12,3.12,0,0,1,2.41.65c.7.67,1,1.69,1.07,4.19h-3c-.05-1.66-.23-2-.38-2.18S7.63,3.88,7,3.88H4.53c-.61,0-.78.06-.91.19s-.42.63-.42,4,.24,3.86.42,4,.3.17.91.17H7c.61,0,.79-.06.92-.17s.33-.48.38-2.34h3C11.25,12.51,10.94,13.49,10.24,14.16Z"/><path class="cls-1" d="M13.83,14.81V4.28h2.93V5.89c1.09-1.13,1.65-1.63,2.49-1.63h1.13V7.15H19a5.41,5.41,0,0,0-2.26.42v7.24Z"/><path class="cls-1" d="M22.9,4.88a2.3,2.3,0,0,1,1.88-.6H28.6a2.7,2.7,0,0,1,2.09.6c.48.47.63,1,.63,2.81v7.12H28.39V13.6c-1.26,1-1.72,1.23-2.66,1.23H24.3a2.34,2.34,0,0,1-1.86-.54,3.15,3.15,0,0,1-.61-2.35,3.57,3.57,0,0,1,.65-2.57c.48-.48,1.09-.71,3-.71A14.06,14.06,0,0,1,28.39,9V8c0-1-.05-1.24-.19-1.39s-.32-.16-.76-.16h-1.5c-.4,0-.61,0-.72.16s-.17.36-.21,1H22.25C22.27,5.91,22.46,5.3,22.9,4.88Zm5.49,7.3V10.42H26.46c-1.11,0-1.38.08-1.57.27s-.23.42-.23.9,0,.82.19,1,.37.17.75.17h.82A3.58,3.58,0,0,0,28.39,12.18Z"/><path class="cls-1" d="M35.87,4.28l1.25,7.29h.19L38.82,5c.12-.57.4-.71,1-.71h1.37c.58,0,.85.14,1,.71l1.55,6.62h.19l1.21-7.29h2.75l-2.18,9.86c-.15.57-.4.7-1,.7H42.78c-.59,0-.86-.17-1-.7l-1.3-5.71h-.18L39,14.14c-.13.55-.42.7-1,.7H36.08c-.57,0-.82-.13-1-.7L32.93,4.28Z"/><path class="cls-1" d="M50.57,14.81V6.58H49V4.28h1.59V3.79c0-1.32.17-2,.61-2.45A2.55,2.55,0,0,1,53.25.69h2.24V2.91H54.24c-.38,0-.5,0-.61.13s-.13.32-.13.84V4.3h2.16V6.58H53.51v8.23Z"/><path class="cls-1" d="M57.86,14.16c-.69-.69-1-1.65-1-4.62s.27-3.92,1-4.63a2.58,2.58,0,0,1,2.08-.63h3.58a2.64,2.64,0,0,1,2.09.63c.69.71,1,1.65,1,4.63s-.26,3.93-1,4.62a2.6,2.6,0,0,1-2.09.65H59.94A2.58,2.58,0,0,1,57.86,14.16Zm2.2-1.86c.11.15.27.19.76.19h1.82c.5,0,.65-.06.77-.19s.25-.5.25-2.76-.1-2.6-.25-2.77-.27-.17-.77-.17H60.82c-.49,0-.65,0-.76.17s-.25.52-.25,2.77S59.91,12.15,60.06,12.3Z"/><path class="cls-1" d="M68.76,14.81V4.28h2.93V5.89c1.09-1.13,1.65-1.63,2.49-1.63h1.13V7.15H74a5.44,5.44,0,0,0-2.26.42v7.24Z"/><path class="cls-1" d="M83.4,14.81V13.45c-1.32,1.15-1.78,1.38-2.64,1.38H79.65a2.75,2.75,0,0,1-2.16-.66c-.63-.63-.88-1.55-.88-4.63s.3-4,1-4.63a2.72,2.72,0,0,1,2.12-.65h1.15c.88,0,1.36.19,2.56,1.21V.69h2.93V14.81Zm0-2.78V7a3.44,3.44,0,0,0-1.53-.42H80.82c-.54,0-.79.07-1,.25s-.34.69-.34,2.69.07,2.43.34,2.7.42.23,1,.23h1A3.66,3.66,0,0,0,83.4,12Z"/><path class="cls-1" d="M88.58,0A1.4,1.4,0,0,1,90,1.41a1.4,1.4,0,1,1-2.79,0A1.4,1.4,0,0,1,88.58,0Zm0,.22a1.16,1.16,0,0,0-1.13,1.19,1.13,1.13,0,1,0,2.26,0A1.16,1.16,0,0,0,88.58.22Zm-.27,2h-.25V.66a2.68,2.68,0,0,1,.45,0A.83.83,0,0,1,89,.74a.39.39,0,0,1,.14.33.39.39,0,0,1-.31.38h0c.14,0,.24.15.27.39a1.28,1.28,0,0,0,.1.39h-.27a1.45,1.45,0,0,1-.1-.41.29.29,0,0,0-.34-.27h-.18Zm0-.88h.19c.2,0,.38-.07.38-.27s-.1-.27-.38-.27h-.19Z"/><path class="cls-1" d="M96.09,15v-.54l.73-.07c.14,0,.16-.05.16-.2V8.56c0-.15,0-.19-.16-.2l-.73-.07V7.75h2.74v.54l-.77.08c-.15,0-.16,0-.16.19v5.61c0,.16,0,.18.16.2l.77.08V15Z"/><path class="cls-1" d="M103.3,15v-.55l.48-.06c.13,0,.18-.06.18-.2V11.81c0-.65-.13-1.28-.87-1.28a2.52,2.52,0,0,0-1.55.64v3c0,.16,0,.18.16.2l.56.07V15H100v-.55l.5-.06c.14,0,.16-.05.16-.2v-3.4c0-.11,0-.18-.13-.21l-.57-.19.09-.53h1.31l.08.59h0a3.21,3.21,0,0,1,1.85-.7c1.15,0,1.58.74,1.58,1.83v2.6c0,.16,0,.18.16.2l.57.07V15Z"/><path class="cls-1" d="M109.48,11.28l-.12-.62c0-.07,0-.11-.1-.13a2.6,2.6,0,0,0-.78-.11c-.73,0-1.06.32-1.06.75s.6.69,1.25.86,1.63.44,1.63,1.52-1,1.56-2,1.56a4.79,4.79,0,0,1-1.81-.34V13.44l.67,0,.12.69a.15.15,0,0,0,.12.14,2.82,2.82,0,0,0,1,.16c.67,0,1.1-.25,1.1-.79s-.57-.74-1.21-.89-1.66-.38-1.66-1.48,1-1.56,2-1.56a4.62,4.62,0,0,1,1.58.28v1.29Z"/><path class="cls-1" d="M111.34,17.1v-.54l.41-.06c.14,0,.17-.05.17-.21V10.78c0-.11,0-.18-.13-.21l-.57-.19.09-.53h1.32l.09.58h0a2.94,2.94,0,0,1,1.79-.69c1.12,0,1.88.72,1.88,2.48,0,1.5-.51,2.88-2.08,2.88a2.15,2.15,0,0,1-1.52-.55v1.73c0,.16,0,.19.16.2l.94.08v.53Zm1.48-3.39a2.09,2.09,0,0,0,1.37.65c1,0,1.31-.79,1.31-2s-.53-1.79-1.15-1.79a2.67,2.67,0,0,0-1.53.62Z"/><path class="cls-1" d="M121.67,14.66a3.66,3.66,0,0,1-1.82.45c-1.81,0-2.4-1.19-2.4-2.68,0-1.83,1-2.68,2.28-2.68s2.06.66,2.06,2.39c0,.13,0,.33,0,.5h-3.36c0,1,.44,1.7,1.53,1.7a2.88,2.88,0,0,0,1.44-.36ZM120.88,12c0-1.14-.54-1.47-1.15-1.47s-1.23.36-1.31,1.47Z"/><path class="cls-1" d="M126.9,14.69a3.37,3.37,0,0,1-1.71.42c-1.71,0-2.44-1-2.44-2.63a2.43,2.43,0,0,1,2.62-2.73,3.67,3.67,0,0,1,1.52.31v1.33l-.67,0-.12-.66a.15.15,0,0,0-.12-.14,2.27,2.27,0,0,0-.68-.09c-.89,0-1.6.52-1.6,1.95s.66,1.94,1.63,1.94a2.67,2.67,0,0,0,1.28-.33Z"/><path class="cls-1" d="M131.25,14.8a3.78,3.78,0,0,1-1.39.31c-1,0-1.39-.45-1.39-1.35V10.64c0-.06,0-.1-.08-.1h-.73V10c.78-.1,1-.41,1.13-1.43h.59V9.75c0,.06,0,.1.08.1h1.47v.69h-1.55v3c0,.63.15.87.72.87a2.62,2.62,0,0,0,.93-.2Z"/><path class="cls-1" d="M132,15v-.55l.66-.06c.14,0,.16-.05.16-.2v-3.4c0-.11,0-.18-.13-.21l-.57-.19.09-.53h1.52v4.33c0,.16,0,.18.16.2l.64.07V15Zm1.14-6.25a.59.59,0,0,1-.65-.64.58.58,0,0,1,.65-.63.58.58,0,0,1,.64.63A.58.58,0,0,1,133.13,8.74Z"/><path class="cls-1" d="M135.2,12.4a2.35,2.35,0,0,1,2.51-2.65c1.71,0,2.37,1.09,2.37,2.59,0,1.68-.76,2.77-2.47,2.77S135.2,14,135.2,12.4Zm3.94,0c0-1.31-.48-1.89-1.45-1.89s-1.55.58-1.55,1.9.51,2,1.5,2S139.14,13.77,139.14,12.4Z"/><path class="cls-1" d="M144.43,15v-.55l.48-.06c.13,0,.18-.06.18-.2V11.81c0-.65-.13-1.28-.87-1.28a2.52,2.52,0,0,0-1.55.64v3c0,.16,0,.18.16.2l.56.07V15H141.1v-.55l.5-.06c.14,0,.16-.05.16-.2v-3.4c0-.11,0-.18-.13-.21l-.57-.19.09-.53h1.31l.08.59h0a3.21,3.21,0,0,1,1.85-.7c1.15,0,1.58.74,1.58,1.83v2.6c0,.16,0,.18.16.2l.57.07V15Z"/><path class="cls-1" d="M154,9.61l-.15-.85c0-.14-.06-.18-.11-.21a2,2,0,0,0-1-.17c-1,0-1.53.45-1.53,1.16s.72,1.07,1.52,1.32c1,.31,2.13.64,2.13,2.14s-1.22,2.11-2.65,2.11a5.78,5.78,0,0,1-2.1-.38V13.09h.67L151,14a.24.24,0,0,0,.2.22,3.49,3.49,0,0,0,1.12.17c1,0,1.63-.39,1.63-1.26s-.69-1.14-1.47-1.37c-1-.3-2.18-.56-2.18-2.07s1.12-2,2.51-2a5.28,5.28,0,0,1,1.86.35v1.7Z"/><path class="cls-1" d="M160.21,14.66a3.66,3.66,0,0,1-1.82.45c-1.81,0-2.4-1.19-2.4-2.68,0-1.83,1-2.68,2.28-2.68s2.06.66,2.06,2.39c0,.13,0,.33,0,.5H157c0,1,.44,1.7,1.53,1.7a2.88,2.88,0,0,0,1.44-.36ZM159.42,12c0-1.14-.54-1.47-1.15-1.47S157,10.84,157,12Z"/><path class="cls-1" d="M161.32,15v-.55l.5-.06c.14,0,.16-.05.16-.2v-3.4c0-.11,0-.18-.13-.21l-.57-.19.09-.53h1.31l.1.69h0a2,2,0,0,1,1.5-.8,3.15,3.15,0,0,1,.72.09v1.51l-.71,0-.12-.69c0-.08,0-.1-.12-.1a2.08,2.08,0,0,0-1.19.63v3c0,.16,0,.19.16.2l.92.08V15Z"/><path class="cls-1" d="M167.84,15l-1.69-4.33c-.05-.12-.09-.14-.21-.17l-.43-.09.12-.55h2.1v.55l-.69.08,1.35,3.73,1.37-3.73-.67-.08.11-.55h1.94v.55l-.33.06c-.14,0-.2,0-.25.17L168.88,15Z"/><path class="cls-1" d="M171.69,15v-.55l.66-.06c.14,0,.16-.05.16-.2v-3.4c0-.11,0-.18-.13-.21l-.57-.19.09-.53h1.52v4.33c0,.16,0,.18.16.2l.64.07V15Zm1.14-6.25a.59.59,0,0,1-.65-.64.58.58,0,0,1,.65-.63.58.58,0,0,1,.64.63A.58.58,0,0,1,172.83,8.74Z"/><path class="cls-1" d="M179.05,14.69a3.37,3.37,0,0,1-1.71.42c-1.71,0-2.44-1-2.44-2.63a2.43,2.43,0,0,1,2.62-2.73,3.67,3.67,0,0,1,1.52.31v1.33l-.67,0-.12-.66a.15.15,0,0,0-.12-.14,2.27,2.27,0,0,0-.68-.09c-.89,0-1.6.52-1.6,1.95s.66,1.94,1.63,1.94a2.67,2.67,0,0,0,1.28-.33Z"/><path class="cls-1" d="M184.07,14.66a3.66,3.66,0,0,1-1.82.45c-1.81,0-2.4-1.19-2.4-2.68,0-1.83,1-2.68,2.28-2.68s2.06.66,2.06,2.39c0,.13,0,.33,0,.5h-3.36c0,1,.44,1.7,1.53,1.7a2.88,2.88,0,0,0,1.44-.36ZM183.28,12c0-1.14-.54-1.47-1.15-1.47s-1.23.36-1.31,1.47Z"/><path class="cls-1" d="M188.17,11.28l-.12-.62c0-.07,0-.11-.1-.13a2.6,2.6,0,0,0-.78-.11c-.73,0-1.06.32-1.06.75s.6.69,1.25.86,1.63.44,1.63,1.52-1,1.56-2,1.56a4.79,4.79,0,0,1-1.81-.34V13.44l.67,0,.12.69a.15.15,0,0,0,.12.14,2.82,2.82,0,0,0,1,.16c.67,0,1.1-.25,1.1-.79s-.57-.74-1.21-.89-1.66-.38-1.66-1.48,1-1.56,2-1.56a4.62,4.62,0,0,1,1.58.28v1.29Z"/></g></g></svg>