<svg xmlns="http://www.w3.org/2000/svg" width="97.224" height="26" viewBox="0 0 97.224 26">
  <g id="indehire_logo_white" transform="translate(-33.929 -17.727)">
    <path id="Path_292" data-name="Path 292" d="M287.546,17.727a2.321,2.321,0,0,0-2.31,2.371,2.248,2.248,0,0,0,2.346,2.3,2.388,2.388,0,0,0,2.395-2.306A2.441,2.441,0,0,0,287.546,17.727Zm.049,3.444a1.064,1.064,0,0,1-1.11-1.091,1.1,1.1,0,0,1,1.093-1.122,1.155,1.155,0,0,1,1.15,1.121A1.13,1.13,0,0,1,287.6,21.17Z" transform="translate(-164.304 0)" fill="#fff"/>
    <path id="Path_293" data-name="Path 293" d="M289.439,37.314V34.437H283.1v16.21h6.337V45.564h-1.714v3.368h-2.908V36.151h2.908v1.163Z" transform="translate(-162.909 -10.925)" fill="#fff"/>
    <path id="Path_294" data-name="Path 294" d="M296.454,59.338v2.877h6.337V46.005h-6.337v5.082h1.714V47.72h2.908V60.5h-2.908V59.338Z" transform="translate(-171.638 -18.488)" fill="#fff"/>
    <path id="Path_295" data-name="Path 295" d="M37.076,34.953v15.96H33.929V34.953Z" transform="translate(0 -11.263)" fill="#fff"/>
    <path id="Path_296" data-name="Path 296" d="M60.511,51.922v7H57.57V52.286a2.122,2.122,0,0,0-2.258-2.348c-1.436,0-2.508.844-2.508,2.827v6.156H49.864v-11.4h2.941V48.8a3.877,3.877,0,0,1,3.4-1.6C58.619,47.2,60.511,48.889,60.511,51.922Z" transform="translate(-10.418 -19.271)" fill="#fff"/>
    <path id="Path_297" data-name="Path 297" d="M96.963,34.953v15.96H94.022V49.568a4.429,4.429,0,0,1-3.694,1.665,5.77,5.77,0,0,1-5.563-6.019,5.77,5.77,0,0,1,5.563-6.019,4.43,4.43,0,0,1,3.694,1.665V34.953Zm-2.941,10.26a3.158,3.158,0,1,0-3.147,3.215A3.06,3.06,0,0,0,94.022,45.213Z" transform="translate(-33.236 -11.263)" fill="#fff"/>
    <path id="Path_298" data-name="Path 298" d="M131.027,56.573a3.16,3.16,0,0,0,2.554-1.14l2.371,1.368a5.77,5.77,0,0,1-4.971,2.44,6.021,6.021,0,1,1-.228-12.039,5.764,5.764,0,0,1,5.768,6.019,6.779,6.779,0,0,1-.114,1.208h-8.6A2.993,2.993,0,0,0,131.027,56.573Zm2.554-4.423a2.766,2.766,0,0,0-2.827-2.3,2.842,2.842,0,0,0-2.987,2.3Z" transform="translate(-59.368 -19.271)" fill="#fff"/>
    <path id="Path_299" data-name="Path 299" d="M175.982,34.953v15.96h-3.123V44.3h-5.928v6.612h-3.147V34.953h3.147v6.338h5.928V34.953Z" transform="translate(-84.899 -11.263)" fill="#fff"/>
    <path id="Path_300" data-name="Path 300" d="M204.874,35.526a1.813,1.813,0,1,1,1.8,1.8A1.82,1.82,0,0,1,204.874,35.526Zm.342,3.169h2.941V50.1h-2.941Z" transform="translate(-111.763 -10.445)" fill="#fff"/>
    <path id="Path_301" data-name="Path 301" d="M227.216,47.466v3.283c-1.528-.182-3.465.5-3.465,2.9v5.449h-2.941v-11.4h2.941v1.961A3.509,3.509,0,0,1,227.216,47.466Z" transform="translate(-122.181 -19.444)" fill="#fff"/>
    <path id="Path_302" data-name="Path 302" d="M246.265,56.573a3.16,3.16,0,0,0,2.554-1.14L251.19,56.8a5.769,5.769,0,0,1-4.97,2.44,6.021,6.021,0,1,1-.228-12.039,5.764,5.764,0,0,1,5.768,6.019,6.744,6.744,0,0,1-.114,1.208h-8.6A2.994,2.994,0,0,0,246.265,56.573Zm2.554-4.423a2.766,2.766,0,0,0-2.827-2.3A2.843,2.843,0,0,0,243,52.15Z" transform="translate(-134.71 -19.271)" fill="#fff"/>
  </g>
</svg>
