<svg xmlns="http://www.w3.org/2000/svg" width="156.196" height="45.209" viewBox="0 0 156.196 45.209">
  <g id="Logo" transform="translate(-100 -18)">
    <g id="Group_360" data-name="Group 360" transform="translate(0 1.126)">
      <g id="Group_325" data-name="Group 325" transform="translate(135.1 26.873)">
        <path id="Path_223" data-name="Path 223" d="M213.371,286.483h-4.737V262.63h4.737Z" transform="translate(-208.634 -262.63)" fill="#fff"/>
        <path id="Path_224" data-name="Path 224" d="M246.16,290.845v9.337h-4.226v-8.247c0-2.147-1.09-3.51-3.067-3.51-2.01,0-3.339,1.465-3.339,3.68v8.076H231.3v-15.2h4.055v1.806a5.875,5.875,0,0,1,4.839-2.215C243.876,284.575,246.16,287.165,246.16,290.845Z" transform="translate(-222.784 -276.329)" fill="#fff"/>
        <path id="Path_225" data-name="Path 225" d="M284.26,270.876a5.979,5.979,0,0,1,4.566,1.942V262.63h4.226v23.853h-4.089v-1.7a5.97,5.97,0,0,1-4.669,2.079c-4.225,0-7.292-3.51-7.292-7.974C277,274.386,280.069,270.876,284.26,270.876Zm.784,12.268c2.181,0,3.816-1.67,3.816-4.26s-1.635-4.259-3.816-4.259c-2.078,0-3.68,1.67-3.68,4.259S282.965,283.144,285.044,283.144Z" transform="translate(-251.311 -262.63)" fill="#fff"/>
        <path id="Path_226" data-name="Path 226" d="M326.238,292.583a7.855,7.855,0,0,1,7.837-8.008,7.73,7.73,0,0,1,7.8,7.769,10.228,10.228,0,0,1-.1,1.6H330.566a3.766,3.766,0,0,0,3.783,3.135c1.636,0,2.76-.648,3.135-1.772h4.055c-.613,2.9-3.135,5.248-7.429,5.248A7.792,7.792,0,0,1,326.238,292.583Zm4.328-1.431h7.088a3.459,3.459,0,0,0-3.407-3.067A3.694,3.694,0,0,0,330.566,291.152Z" transform="translate(-282.046 -276.329)" fill="#fff"/>
        <path id="Path_227" data-name="Path 227" d="M391.627,272.308V262.63h4.737v23.853h-4.737v-9.814H380.212v9.814h-4.737V262.63h4.737v9.678Z" transform="translate(-312.781 -262.63)" fill="#fff"/>
        <path id="Path_228" data-name="Path 228" d="M442.41,265.713a2.573,2.573,0,0,1,0,5.145,2.573,2.573,0,0,1,0-5.145Zm2.113,22.695H440.3v-15.2h4.225Z" transform="translate(-352.969 -264.555)" fill="#fff"/>
        <path id="Path_229" data-name="Path 229" d="M471.022,289.356c-.307-.034-1.09-.068-1.5-.068-2.692,0-4.226,1.908-4.226,4.668v6.679h-4.225v-15.2h4.055v2.352a5.878,5.878,0,0,1,5.9-2.385Z" transform="translate(-366.214 -276.782)" fill="#fff"/>
        <path id="Path_230" data-name="Path 230" d="M489.271,292.583a7.855,7.855,0,0,1,7.838-8.008,7.73,7.73,0,0,1,7.8,7.769,10.22,10.22,0,0,1-.1,1.6H493.6a3.766,3.766,0,0,0,3.783,3.135c1.636,0,2.76-.648,3.135-1.772h4.055c-.613,2.9-3.135,5.248-7.429,5.248A7.792,7.792,0,0,1,489.271,292.583Zm4.328-1.431h7.088a3.459,3.459,0,0,0-3.407-3.067A3.694,3.694,0,0,0,493.6,291.152Z" transform="translate(-383.816 -276.329)" fill="#fff"/>
      </g>
    </g>
    <g id="Group_359" data-name="Group 359" transform="translate(-130.944)">
      <path id="Subtraction_2" data-name="Subtraction 2" d="M4.079,8.129h0A4.118,4.118,0,0,1,1.155,7,4,4,0,0,1,0,4.123,4.119,4.119,0,0,1,1.153,1.21,4.029,4.029,0,0,1,4.016,0h.046A4.233,4.233,0,0,1,7.03,1.271a4.254,4.254,0,0,1,.889,1.3,3.794,3.794,0,0,1,.324,1.547A3.938,3.938,0,0,1,7,6.94,4.2,4.2,0,0,1,4.079,8.129Zm.01-6.245H4.065a2.161,2.161,0,0,0-1.536.649A2.209,2.209,0,0,0,1.911,4.1,2.147,2.147,0,0,0,2.53,5.639,2.21,2.21,0,0,0,4.1,6.245a2.258,2.258,0,0,0,1.569-.638,2.113,2.113,0,0,0,.667-1.514,2.18,2.18,0,0,0-.651-1.528A2.273,2.273,0,0,0,4.089,1.884Z" transform="translate(232.229 18)" fill="#fff"/>
      <g id="Group_326" data-name="Group 326" transform="translate(230.944 28.059)">
        <path id="Path_233" data-name="Path 233" d="M552.524,263.017v-5H541.505V286.2h11.018v-8.838h-2.981v5.856h-5.056V261h5.056v2.022Z" transform="translate(-541.505 -258.015)" fill="#fff"/>
        <path id="Path_234" data-name="Path 234" d="M561.953,298.915v5h11.018V275.732H561.953v8.837h2.981v-5.856h5.056v22.224h-5.056v-2.021Z" transform="translate(-553.916 -268.768)" fill="#fff"/>
      </g>
    </g>
  </g>
</svg>
