<svg xmlns="http://www.w3.org/2000/svg" width="19.056" height="45.209" viewBox="0 0 19.056 45.209">
  <g id="Group_359" data-name="Group 359" transform="translate(-230.944 -18)">
    <path id="Subtraction_2" data-name="Subtraction 2" d="M4.079,8.129h0A4.118,4.118,0,0,1,1.155,7,4,4,0,0,1,0,4.123,4.119,4.119,0,0,1,1.153,1.21,4.029,4.029,0,0,1,4.016,0h.046A4.233,4.233,0,0,1,7.03,1.271a4.254,4.254,0,0,1,.889,1.3,3.794,3.794,0,0,1,.324,1.547A3.938,3.938,0,0,1,7,6.94,4.2,4.2,0,0,1,4.079,8.129Zm.01-6.245H4.065a2.161,2.161,0,0,0-1.536.649A2.209,2.209,0,0,0,1.911,4.1,2.147,2.147,0,0,0,2.53,5.639,2.21,2.21,0,0,0,4.1,6.245a2.258,2.258,0,0,0,1.569-.638,2.113,2.113,0,0,0,.667-1.514,2.18,2.18,0,0,0-.651-1.528A2.273,2.273,0,0,0,4.089,1.884Z" transform="translate(232.229 18)" fill="#193971"/>
    <g id="Group_326" data-name="Group 326" transform="translate(230.944 28.059)">
      <path id="Path_233" data-name="Path 233" d="M552.524,263.017v-5H541.505V286.2h11.018v-8.838h-2.981v5.856h-5.056V261h5.056v2.022Z" transform="translate(-541.505 -258.015)" fill="#193971"/>
      <path id="Path_234" data-name="Path 234" d="M561.953,298.915v5h11.018V275.732H561.953v8.837h2.981v-5.856h5.056v22.224h-5.056v-2.021Z" transform="translate(-553.916 -268.768)" fill="#c90b51"/>
    </g>
  </g>
</svg>
