<svg xmlns="http://www.w3.org/2000/svg" width="20" height="18" viewBox="0 0 20 18"><g transform="translate(0 -2.465)"><path d="M13.356,13.465l-11.379.023A1.96,1.96,0,0,0,0,15.426v6.91a1.96,1.96,0,0,0,1.977,1.938H4v3.269a.327.327,0,0,0,.213.3.339.339,0,0,0,.367-.085l3.235-3.489,5.542-.022a1.96,1.96,0,0,0,1.977-1.938V15.4A1.96,1.96,0,0,0,13.356,13.465ZM3.333,16.734H7.667a.327.327,0,1,1,0,.654H3.333a.327.327,0,1,1,0-.654ZM12,21.31H3.333a.327.327,0,1,1,0-.654H12a.327.327,0,1,1,0,.654Zm0-1.961H3.333a.327.327,0,1,1,0-.654H12a.327.327,0,1,1,0,.654Z" transform="translate(0 -7.405)" fill="#fff"/><path d="M27.357,2.488,15.977,2.465A1.96,1.96,0,0,0,14,4.4V5.424l8.688-.018A2.622,2.622,0,0,1,25.333,8v7.592l1.087,1.172a.339.339,0,0,0,.367.085.327.327,0,0,0,.213-.3V13.274h.357a1.96,1.96,0,0,0,1.977-1.938V4.426A1.96,1.96,0,0,0,27.357,2.488Z" transform="translate(-9.333)" fill="#fff"/></g></svg>