<svg xmlns="http://www.w3.org/2000/svg" width="16" height="16" viewBox="0 0 16 16">
  <g id="Pending" transform="translate(-1213 -204)">
    <circle id="Ellipse_97" data-name="Ellipse 97" cx="8" cy="8" r="8" transform="translate(1213 204)" fill="#c8bbcf"/>
    <g id="Group_857" data-name="Group 857" transform="translate(1220.111 207.556)">
      <path id="Path_309" data-name="Path 309" d="M241.7,163.054a.7.7,0,0,0,.7-.69v-4.646a.7.7,0,0,0-1.4,0v4.646A.7.7,0,0,0,241.7,163.054Zm0,0" transform="translate(-240.712 -157.027)" fill="#fff"/>
      <path id="Path_310" data-name="Path 310" d="M236.811,308.837a.988.988,0,1,1-.988-.974A.981.981,0,0,1,236.811,308.837Zm0,0" transform="translate(-234.836 -300.922)" fill="#fff"/>
    </g>
  </g>
</svg>
