<svg xmlns="http://www.w3.org/2000/svg" width="18" height="16" viewBox="0 0 18 16">
  <g id="personal_info" transform="translate(0 -2.5)">
    <path id="Path_256" data-name="Path 256" d="M26.279,15.416l-2.964-1.442a1.1,1.1,0,0,1-.625-.984V11.858a4.33,4.33,0,0,0,.281-.351A6.56,6.56,0,0,0,23.892,9.7a.909.909,0,0,0,.66-.862V7.632a.89.89,0,0,0-.31-.669V5.217S24.61,2.5,20.828,2.5s-3.414,2.717-3.414,2.717V6.963a.89.89,0,0,0-.31.669V8.84a.9.9,0,0,0,.429.76,5.932,5.932,0,0,0,1.123,2.259v1.1a1.1,1.1,0,0,1-.589.965L15.3,15.4A2.412,2.412,0,0,0,14,17.522V18.5H27.655v-.919A2.416,2.416,0,0,0,26.279,15.416Z" transform="translate(-9.655)" fill="#c8bbcf"/>
    <path id="Path_257" data-name="Path 257" d="M5.642,20.283,7.487,19.3c-.011-.01,0-.013.02-.011l.9-.479A1.1,1.1,0,0,0,9,17.849v-1.1a5.731,5.731,0,0,1-.649-1h0c-.042-.081-.083-.166-.124-.255L8.21,15.45c-.041-.091-.082-.186-.12-.285l-.007-.02c-.034-.088-.065-.178-.095-.27L7.964,14.8c-.031-.1-.061-.206-.086-.313a.9.9,0,0,1-.43-.759V12.519a.89.89,0,0,1,.31-.669V10.145A3.48,3.48,0,0,0,5.586,9.5c-2.968,0-3.1,2.415-3.1,2.415v1.508a.812.812,0,0,0-.31.578v1.043a.778.778,0,0,0,.371.656A4.317,4.317,0,0,0,3.71,17.651V18.6a.946.946,0,0,1-.509.834L1.12,20.707A2.083,2.083,0,0,0,0,22.542v.844H4.345v-.978A2.412,2.412,0,0,1,5.642,20.283Z" transform="translate(0 -4.887)" fill="#afa5b4"/>
  </g>
</svg>
