<svg id="professional_info" xmlns="http://www.w3.org/2000/svg" width="16" height="16" viewBox="0 0 16 16">
  <path id="Path_258" data-name="Path 258" d="M15.733,0H.267A.267.267,0,0,0,0,.267V15.733A.267.267,0,0,0,.267,16H15.733A.267.267,0,0,0,16,15.733V.267A.267.267,0,0,0,15.733,0ZM4.983,13.554l-1-.527-1,.527.191-1.115-.81-.79,1.12-.163.5-1.015.5,1.015,1.12.163-.81.79ZM4.791,8.321l.191,1.115-1-.527-1,.527.191-1.115-.81-.79,1.12-.163.5-1.015.5,1.015L5.6,7.53Zm0-4.022.191,1.115-1-.527-1,.527L3.171,4.3l-.81-.79,1.12-.163.5-1.015.5,1.015,1.12.163Zm7.742,8.5h-6.4V11.733h6.4Zm0-4h-6.4V7.733h6.4Zm0-4h-6.4V3.733h6.4Z" fill="#c8bbcf"/>
</svg>
